<?xml version="1.0" encoding="utf-8"?>
<!-- Generator: Adobe Illustrator 19.0.0, SVG Export Plug-In . SVG Version: 6.00 Build 0)  -->
<svg version="1.1" id="图层_1" xmlns="http://www.w3.org/2000/svg" xmlns:xlink="http://www.w3.org/1999/xlink" x="0px" y="0px"
	 viewBox="0 0 4233 800" enable-background="new 0 0 4233 800" xml:space="preserve">
<path fill="#FF6B02" d="M744.596,794.596H55.404c-27.5,0-50-22.5-50-50V55.404c0-27.5,22.5-50,50-50h689.192c27.5,0,50,22.5,50,50
	v689.192C794.596,772.096,772.096,794.596,744.596,794.596z"/>
<g>
	<g>
		<path fill="#FAF9F5" d="M505.931,551.984v-85.466V356.409v-22.256c0-49.492-40.111-89.617-89.595-89.617h-20.52H250.563h-86.095
			c-1.943,0-3.514,1.564-3.514,3.486v86.131v132.364v85.466c0,1.922,1.572,3.479,3.514,3.479h67.276
			c1.943,0,3.515-1.565,3.515-3.501v-83.687V313.39c0-1.935,1.573-3.507,3.515-3.507h144.668c27.165,0,49.199,22.02,49.199,49.191
			v101.585v91.303c0,1.936,1.572,3.501,3.501,3.501h66.289C504.36,555.463,505.931,553.906,505.931,551.984z"/>
		<path fill="#FAF9F5" d="M370.081,551.962c0,1.936-1.557,3.501-3.501,3.501h-67.262c-1.943,0-3.515-1.565-3.515-3.501V369.141
			c0-1.935,1.573-3.507,3.515-3.507h67.262c1.943,0,3.501,1.572,3.501,3.507V551.962z"/>
		<path fill="#FAF9F5" d="M639.047,551.962c0,1.936-1.573,3.501-3.516,3.501h-67.246c-1.944,0-3.531-1.565-3.531-3.501V248.051
			c0-1.943,1.587-3.515,3.531-3.515h67.246c1.943,0,3.516,1.571,3.516,3.515V551.962z"/>
	</g>
</g>
<g>
	<path fill="#363231" d="M975.657,538.262c-21.108-11.247-37.303-18.998-48.55-23.22c40.799-73.155,75.266-156.897,103.433-251.193
		l48.55,14.776C1049.538,367.282,1015.038,453.828,975.657,538.262z M1057.981,639.583c-4.222-19.724-8.443-35.885-12.665-48.55
		c16.887,1.385,40.106,2.11,69.658,2.11c26.716,2.804,38.688-10.554,35.885-40.106V156.195h52.771v407.397
		c1.385,50.66-22.527,75.266-71.77,73.88C1117.778,638.858,1093.141,639.583,1057.981,639.583z M1372.5,531.929
		c-30.971-73.154-68.966-156.204-113.986-249.082l46.438-16.887c47.824,97.1,85.82,178.038,113.986,242.749L1372.5,531.929z"/>
	<path fill="#363231" d="M1471.71,392.612v-42.217h217.419v-194.2h50.661v194.2h215.308v42.217h-185.756
		c42.218,71.77,105.543,128.07,189.978,168.869c-5.64,8.443-14.083,23.22-25.33,44.328
		c-91.492-52.046-156.204-113.261-194.199-183.644v223.751h-50.661V424.275c-40.832,71.77-106.269,135.821-196.31,192.089
		c-12.666-19.724-21.835-33.773-27.441-42.218c91.46-52.046,156.203-112.568,194.199-181.534H1471.71z M1606.806,325.064
		c-36.61-46.439-68.966-84.435-97.1-113.986l35.885-27.441c9.828,11.28,26.022,28.859,48.55,52.771
		c23.912,26.749,40.799,45.747,50.66,56.993L1606.806,325.064z M1820.003,327.175l-35.885-29.552
		c18.272-19.69,45.021-52.047,80.213-97.101c5.606-7.024,9.828-12.665,12.665-16.887l37.995,27.441
		C1885.439,250.492,1853.776,289.179,1820.003,327.175z"/>
	<path fill="#363231" d="M2216.845,648.027c-14.083-18.306-24.638-31.663-31.663-40.107
		c59.104-29.553,104.817-62.601,137.206-99.211c-28.166-42.217-48.55-94.988-61.215-158.315c-1.418,1.418-3.529,3.528-6.332,6.332
		c-2.837,2.837-6.333,8.443-10.555,16.888v25.33h-67.548v128.763c9.829-1.386,24.604-4.222,44.328-8.443
		c15.469-2.804,26.716-4.914,33.774-6.333c0,15.502,0,29.553,0,42.218c-21.109,4.222-68.966,13.391-143.539,27.441
		c-45.054,8.443-78.102,14.775-99.211,18.997l-8.443-44.328c12.665-2.804,25.33-4.914,37.996-6.332V316.621h44.328v225.863
		c15.469-2.804,30.244-4.915,44.328-6.333V234.297h-111.876v-40.106h236.417v40.106h-78.103v124.541h54.883
		c-1.418-1.386-2.837-3.496-4.222-6.333c-7.059-9.828-11.28-15.469-12.665-16.887c40.799-56.268,71.043-118.208,90.767-185.756
		l48.55,14.776c-9.861,25.33-21.108,50.66-33.773,75.99H2499.7v40.106h-46.438c-9.862,97.101-34.5,173.092-73.88,227.974
		c29.552,35.192,70.351,66.162,122.43,92.878c-7.059,8.443-15.502,23.22-25.33,44.328c-60.522-37.995-102.74-71.044-126.652-99.21
		C2316.056,583.283,2271.728,617.056,2216.845,648.027z M2301.279,280.736c0,1.419-0.726,2.837-2.11,4.222
		c-1.419,1.419-2.111,2.837-2.111,4.222c12.665,77.41,30.938,137.207,54.883,179.424c28.134-47.824,46.438-110.458,54.882-187.867
		H2301.279z"/>
	<path fill="#363231" d="M2837.438,154.085c-4.222,7.058-8.443,12.665-12.665,16.887c53.464,68.966,125.926,122.43,217.419,160.426
		l-29.552,42.218c-97.101-49.243-168.869-104.818-215.309-166.759c-53.497,63.326-128.07,121.045-223.751,173.091l-29.553-40.107
		c111.15-54.883,190.671-118.901,238.527-192.089L2837.438,154.085z M2556.693,620.585v-40.106h75.991V386.28h50.661v194.199h97.1
		V306.067h48.55v107.654h143.539v40.106h-143.539v126.651h194.199v40.106H2556.693z"/>
	<path fill="#363231" d="M3122.406,648.027c-16.888-15.502-28.167-26.057-33.774-31.663c23.912-33.773,34.467-95.682,31.663-185.756
		V177.304h151.982v403.175c0,36.577-17.612,55.575-52.771,56.993c-15.502,0-31.663,0-48.55,0
		c-1.419-12.665-3.529-26.748-6.333-42.217c19.69,2.803,33.773,4.222,42.218,4.222c14.05,1.385,21.108-6.333,21.108-23.22V468.603
		h-61.215C3166.734,538.988,3151.958,598.752,3122.406,648.027z M3166.734,215.299v88.656h61.215v-88.656H3166.734z
		 M3166.734,341.952v90.767h61.215v-90.767H3166.734z M3559.354,643.805c-39.414-21.109-73.88-45.054-103.433-71.77
		c-23.944,25.33-52.771,49.242-86.545,71.77c-7.059-8.443-13.391-16.887-18.998-25.331v27.441h-46.438V179.415h242.749
		c0,35.192-0.726,60.522-2.111,75.991c-2.836,45.054-28.859,66.855-78.102,65.436c-12.665,1.419-35.192,2.111-67.548,2.111
		c0-5.607-0.726-12.303-2.11-20.054c-1.418-7.718-2.837-13.721-4.222-17.942c19.69,0,41.491,0,65.437,0
		c25.33,2.837,38.688-7.024,40.106-29.552c1.385-8.443,2.11-21.108,2.11-37.995h-149.871v141.428h202.644v37.995
		c-18.306,57.72-41.525,104.851-69.659,141.429c26.716,22.526,59.797,44.328,99.211,65.437
		C3576.935,613.527,3569.184,626.919,3559.354,643.805z M3350.379,597.366c29.553-18.272,54.157-37.995,73.881-59.104
		c-26.749-35.159-47.165-82.324-61.216-141.429h-12.665V597.366z M3506.583,396.833h-99.211
		c14.051,43.636,30.245,78.828,48.55,105.544C3474.194,477.046,3491.081,441.887,3506.583,396.833z"/>
	<path fill="#363231" d="M3643.789,417.943c-2.837-7.025-9.169-19.69-18.998-37.996c87.238-12.665,156.204-28.826,206.865-48.55
		c-29.553-19.69-57.72-44.328-84.435-73.88c-22.527,25.33-48.55,49.275-78.103,71.769c-14.083-15.469-25.33-26.715-33.773-33.773
		c56.268-40.799,105.543-90.042,147.76-147.761l48.551,10.555c-8.444,12.665-16.888,24.638-25.331,35.885h251.193v37.995
		c-42.218,42.218-85.16,75.299-128.763,99.211c42.217,16.887,106.235,29.552,192.088,37.996
		c-2.836,7.058-8.443,20.416-16.887,40.106c-92.878-9.829-167.483-27.441-223.751-52.772
		C3828.127,380.672,3749.332,401.055,3643.789,417.943z M3871.763,637.472c-4.223-19.724-7.059-34.499-8.444-44.328
		c23.912,0,52.047,0,84.435,0c35.159,4.222,53.465-14.051,54.883-54.882c2.804-29.553,4.222-49.936,4.222-61.216h-158.314
		c-9.862,80.213-73.188,138.592-189.978,175.202c-15.502-23.945-24.638-37.996-27.441-42.218
		c101.321-29.552,156.896-73.88,166.758-132.984h-132.984v-37.995h141.428c1.386-5.608,2.441-14.051,3.167-25.33
		c0.692-11.247,1.055-19.69,1.055-25.331h50.661c-1.418,18.306-3.529,35.192-6.333,50.661h204.754
		c-2.836,19.724-5.64,49.968-8.443,90.767c0,4.222,0,7.751,0,10.555c1.386,66.13-30.971,98.485-97.1,97.1
		C3923.115,637.472,3895.675,637.472,3871.763,637.472z M3994.192,232.186h-213.197c30.938,33.774,64.019,59.83,99.211,78.103
		C3918.201,293.401,3956.197,267.378,3994.192,232.186z"/>
</g>
</svg>
