<?xml version="1.0" encoding="utf-8"?>
<!-- Generator: Adobe Illustrator 22.0.1, SVG Export Plug-In . SVG Version: 6.00 Build 0)  -->
<svg version="1.1" id="图层_1" xmlns="http://www.w3.org/2000/svg" xmlns:xlink="http://www.w3.org/1999/xlink" x="0px" y="0px"
	 viewBox="0 0 72 72" style="enable-background:new 0 0 72 72;" xml:space="preserve">
<style type="text/css">
	.st0{display:none;fill:#D3D3D3;}
	.st1{display:none;fill:#FFFFFF;}
	.st2{fill:#FFF6F0;}
	.st3{fill:#FF6B02;}
</style>
<rect class="st0" width="72" height="72"/>
<rect x="3" y="3" class="st1" width="66" height="66"/>
<circle class="st2" cx="36" cy="35.9" r="36"/>
<path class="st3" d="M24.6,30.2"/>
<g>
	<path class="st3" d="M55.3,17.1H16.7c-0.5,0-1,0.5-1,1v3.6c0,0.6,0.5,1,1,1h38.6c0.5,0,1-0.4,1-1v-3.6
		C56.3,17.5,55.9,17.1,55.3,17.1z M54.3,20.6H17.7v-1.6h36.6V20.6z"/>
	<path class="st3" d="M52.6,20.7H19.5c-0.5,0-1,0.5-1,1v22.1c0,0.5,0.5,1,1,1h33.1c0.5,0,1-0.5,1-1V21.7
		C53.6,21.1,53.1,20.7,52.6,20.7z M51.6,42.8H20.5V22.7h31.1V42.8z"/>
	<g>
		<path class="st3" d="M26,41.2L26,41.2c-0.6,0-1-0.5-1-1v-1c0-0.5,0.4-1,1-1h0c0.5,0,1,0.4,1,1v1C27,40.8,26.6,41.2,26,41.2z"/>
		<path class="st3" d="M36,41.2L36,41.2c-0.6,0-1-0.5-1-1v-2c0-0.5,0.4-1,1-1h0c0.5,0,1,0.4,1,1v2C37,40.8,36.6,41.2,36,41.2z"/>
		<path class="st3" d="M31,41.2L31,41.2c-0.6,0-1-0.5-1-1v-3c0-0.5,0.4-1,1-1h0c0.5,0,1,0.5,1,1v3C32,40.7,31.6,41.2,31,41.2z"/>
		<path class="st3" d="M41,41.2L41,41.2c-0.6,0-1-0.5-1-1v-4c0-0.5,0.4-1,1-1h0c0.5,0,1,0.5,1,1v4C42,40.7,41.6,41.2,41,41.2z"/>
		<path class="st3" d="M46,41.2L46,41.2c-0.5,0-1-0.5-1-1v-7c0-0.5,0.5-1,1-1l0,0c0.5,0,1,0.5,1,1v7C47,40.7,46.6,41.2,46,41.2z"/>
	</g>
	<g>
		<path class="st3" d="M36,54.8L36,54.8c-0.5,0-1-0.4-1-1v-10c0-0.5,0.5-1,1-1l0,0c0.6,0,1,0.5,1,1v10C37,54.4,36.6,54.8,36,54.8z"
			/>
		<path class="st3" d="M20.4,54.4L20.4,54.4c-0.4-0.4-0.4-1,0-1.4l9.9-9.9c0.4-0.4,1-0.4,1.4,0h0c0.4,0.4,0.4,1,0,1.4l-9.9,9.9
			C21.4,54.8,20.8,54.8,20.4,54.4z"/>
		<path class="st3" d="M51.7,54.4L51.7,54.4c0.4-0.4,0.4-1,0-1.4l-9.9-9.9c-0.4-0.4-1-0.4-1.4,0h0c-0.4,0.4-0.4,1,0,1.4l9.9,9.9
			C50.7,54.8,51.3,54.8,51.7,54.4z"/>
	</g>
	<path class="st3" d="M25.5,37.1L25.5,37.1c-0.4-0.4-0.4-1,0-1.4l5.7-5.7c0.4-0.4,1-0.4,1.4,0v0c0.4,0.4,0.4,1,0,1.4l-5.7,5.7
		C26.5,37.5,25.8,37.5,25.5,37.1z"/>
	<path class="st3" d="M36.9,35.7L36.9,35.7c0.4-0.4,0.4-1,0-1.4L32.6,30c-0.4-0.4-1-0.4-1.4,0l0,0c-0.4,0.4-0.4,1,0,1.4l4.3,4.3
		C35.9,36.1,36.5,36.1,36.9,35.7z"/>
	<g>
		<path class="st3" d="M41.1,25L41.1,25c0-0.6,0.4-1,1-1h4.1c0.5,0,1,0.4,1,1v0c0,0.5-0.5,1-1,1h-4.1C41.5,26,41.1,25.5,41.1,25z"/>
		<path class="st3" d="M46.1,30L46.1,30c0.6,0,1-0.4,1-1V25c0-0.6-0.5-1-1-1h0c-0.5,0-1,0.5-1,1V29C45.1,29.6,45.6,30,46.1,30z"/>
		<path class="st3" d="M35.5,35.6L35.5,35.6c-0.4-0.4-0.4-1,0-1.4l10-10c0.4-0.4,1-0.4,1.4,0v0c0.4,0.4,0.4,1,0,1.4l-10,10
			C36.5,36,35.9,36,35.5,35.6z"/>
	</g>
</g>
</svg>
