<?xml version="1.0" encoding="utf-8"?>
<!-- Generator: Adobe Illustrator 22.0.1, SVG Export Plug-In . SVG Version: 6.00 Build 0)  -->
<svg version="1.1" id="图层_1" xmlns="http://www.w3.org/2000/svg" xmlns:xlink="http://www.w3.org/1999/xlink" x="0px" y="0px"
	 viewBox="0 0 72 72" style="enable-background:new 0 0 72 72;" xml:space="preserve">
<style type="text/css">
	.st0{display:none;fill:#D3D3D3;}
	.st1{display:none;fill:#FFFFFF;}
	.st2{fill:#FFF6F0;}
	.st3{fill:#FF6B02;}
</style>
<rect class="st0" width="72" height="72"/>
<rect x="3" y="3" class="st1" width="66" height="66"/>
<circle class="st2" cx="36" cy="36" r="36"/>
<path class="st3" d="M24.6,30.2"/>
<g>
	<g>
		<path class="st3" d="M50.7,24.4c0-0.1,0-0.1-0.1-0.2c0,0,0-0.1,0-0.1l0,0c-0.1-0.2-0.2-0.3-0.4-0.4c-0.5-0.2-0.9-0.4-1.4-0.7
			c-1.1-0.5-2.2-1.1-3.3-1.6c-1.3-0.6-2.6-1.3-3.9-1.9c-1.1-0.5-2.3-1.1-3.4-1.7c-0.5-0.3-1.1-0.5-1.6-0.8c-0.2-0.1-0.4-0.2-0.6-0.1
			c-0.1,0-0.3,0.1-0.4,0.1c-0.1,0-0.1,0.1-0.2,0.1c-0.3,0.1-0.6,0.3-0.8,0.4c-1,0.5-2.1,1-3.1,1.5c-1.3,0.6-2.6,1.3-3.9,1.9
			c-1.2,0.6-2.4,1.1-3.5,1.7c-0.6,0.3-1.3,0.6-1.9,0.9c0,0-0.1,0-0.1,0c-0.6,0.3-0.6,1.4,0,1.7c1,0.5,2,0.9,2.9,1.4
			c0.5,0.3,1.1,0.5,1.6,0.8c1,0.5,2,1,3,1.5c1.3,0.6,2.6,1.3,3.9,1.9c0.7,0.4,1.4,0.7,2.2,1c0.2,0.1,0.4,0.2,0.7,0.1
			c0.1,0,0.3-0.1,0.4-0.1c0.1,0,0.2-0.1,0.2-0.1c0.4-0.2,0.8-0.4,1.1-0.5c1.2-0.6,2.5-1.2,3.7-1.8c1.1-0.6,2.3-1.1,3.4-1.7
			c0.5-0.2,0.9-0.4,1.4-0.7c1.2-0.6,2.3-1.1,3.5-1.7c0.1,0,0.2-0.1,0.3-0.1c0,0,0,0,0.1-0.1c0,0,0,0,0.1-0.1
			c0.1-0.1,0.1-0.1,0.2-0.2c0,0,0,0,0,0c0,0,0,0,0-0.1c0-0.1,0.1-0.2,0.1-0.3c0,0,0,0,0-0.1C50.7,24.6,50.7,24.5,50.7,24.4z
			 M45.6,25.5L45,25.8l-0.7,0.3l-2,1l-1.5,0.7c-1.2,0.6-2.5,1.2-3.7,1.8l-0.6,0.3l-0.5,0.2c-0.4-0.2-0.8-0.4-1.2-0.6l-0.6-0.3
			l-3.9-1.9l-1.3-0.6l-1.7-0.8l-0.6-0.3l-1-0.5l-1-0.5l0.1,0l2-1l1.5-0.7c1.1-0.5,2.1-1,3.2-1.5l0.8-0.4l3.1-1.5l0.7-0.3
			c0.2,0.1,0.5,0.2,0.7,0.3l0.6,0.3l2,1l1.4,0.7l2.6,1.3l1.3,0.6l1.3,0.6l1.4,0.7L45.6,25.5z"/>
		<g>
			<g>
				<path class="st3" d="M44.6,27.6c0,0.7,0,1.4,0,2.1c0,1.1,0,2.3,0,3.4c0,0.3,0,0.5,0,0.8c0.2-0.3,0.3-0.6,0.5-0.9
					c-1.1,0.5-2.1,1-3.2,1.5c-1.7,0.8-3.4,1.6-5.1,2.3c-0.4,0.2-0.8,0.4-1.2,0.5c0.3,0,0.7,0,1,0c-1.1-0.5-2.1-1-3.2-1.5
					c-1.7-0.8-3.4-1.6-5.1-2.3c-0.4-0.2-0.8-0.4-1.2-0.5c0.2,0.3,0.3,0.6,0.5,0.9c0-0.7,0-1.4,0-2.1c0-1.1,0-2.3,0-3.4
					c0-0.3,0-0.5,0-0.8c0-0.5-0.5-1-1-1c-0.5,0-1,0.4-1,1c0,0.7,0,1.4,0,2.1c0,1.1,0,2.3,0,3.4c0,0.3,0,0.5,0,0.8
					c0,0.3,0.2,0.7,0.5,0.9c1.1,0.5,2.2,1,3.2,1.5c1.7,0.8,3.4,1.6,5.1,2.3c0.4,0.2,0.7,0.3,1.1,0.5c0.4,0.2,0.7,0.2,1,0
					c0,0,0.1,0,0.1-0.1c0.2-0.1,0.4-0.2,0.6-0.3c1.6-0.7,3.3-1.5,4.9-2.2c1.3-0.6,2.5-1.2,3.8-1.8c0,0,0,0,0.1,0
					c0.3-0.1,0.5-0.5,0.5-0.9c0-0.7,0-1.4,0-2.1c0-1.1,0-2.3,0-3.4c0-0.3,0-0.5,0-0.8c0-0.5-0.5-1-1-1C45,26.7,44.6,27.1,44.6,27.6
					L44.6,27.6z"/>
			</g>
		</g>
		<g>
			<g>
				<path class="st3" d="M48.8,24.6c0,1.4,0,2.9,0,4.3c0,0.2,0,0.4,0,0.6c0,0.5,0.5,1,1,1c0.5,0,1-0.4,1-1c0-1.4,0-2.9,0-4.3
					c0-0.2,0-0.4,0-0.6c0-0.5-0.5-1-1-1C49.2,23.7,48.8,24.1,48.8,24.6L48.8,24.6z"/>
			</g>
		</g>
	</g>
	<g>
		<path class="st3" d="M56.5,52.6c0-0.1-0.1-0.1-0.1-0.2c0,0-0.1-0.1-0.1-0.1c0,0-0.1-0.1-0.2-0.1c0,0-0.1,0-0.1,0c0,0-0.1,0-0.1,0
			c-0.4-0.4-1-2.5-1-4.3s0.6-3.9,1-4.3c0,0,0.1,0,0.1,0c0,0,0.1,0,0.1,0c0.1,0,0.1-0.1,0.2-0.1c0,0,0.1,0,0.1-0.1
			c0-0.1,0.1-0.1,0.1-0.2c0,0,0-0.1,0.1-0.1c0-0.1,0.1-0.2,0.1-0.3c0-0.5-0.4-0.9-0.9-0.9H19.9c-2.4,0-4.3,1.9-4.3,4.3v3.4
			c0,2.4,1.9,4.3,4.3,4.3h35.8c0.5,0,0.9-0.4,0.9-0.9C56.6,52.9,56.6,52.8,56.5,52.6C56.5,52.6,56.5,52.6,56.5,52.6z M53.6,51.8
			H19.9c-1.2,0-2.3-1-2.3-2.3v-3.4c0-1.2,1-2.3,2.3-2.3h33.7c-0.4,1.3-0.7,2.9-0.7,4S53.1,50.5,53.6,51.8z"/>
		<path class="st3" d="M53.4,48.8l-30.6,0c-0.5,0-1-0.4-1-1v0c0-0.5,0.5-1,1-1h30.6c0.5,0,1,0.5,1,1v0C54.4,48.4,54,48.8,53.4,48.8z
			"/>
	</g>
</g>
</svg>
