<?xml version="1.0" encoding="utf-8"?>
<!-- Generator: Adobe Illustrator 22.0.1, SVG Export Plug-In . SVG Version: 6.00 Build 0)  -->
<svg version="1.1" id="图层_1" xmlns="http://www.w3.org/2000/svg" xmlns:xlink="http://www.w3.org/1999/xlink" x="0px" y="0px"
	 viewBox="0 0 72 72" style="enable-background:new 0 0 72 72;" xml:space="preserve">
<style type="text/css">
	.st0{display:none;fill:#D3D3D3;}
	.st1{display:none;fill:#FFFFFF;}
	.st2{fill:#FFF6F0;}
	.st3{fill:#FF6B02;}
</style>
<rect class="st0" width="72" height="72"/>
<rect x="3" y="3" class="st1" width="66" height="66"/>
<circle class="st2" cx="36" cy="36" r="36"/>
<path class="st3" d="M20.9,45h-2.6c-1.5,0-2.7,1.3-2.7,2.9v8.7c0,1.6,1.2,2.9,2.7,2.9h2.6c1.5,0,2.7-1.3,2.7-2.9v-8.7
	C23.6,46.2,22.4,45,20.9,45z M21.6,56.6c0,0.5-0.3,0.9-0.7,0.9h-2.6c-0.4,0-0.7-0.4-0.7-0.9v-8.7c0-0.5,0.3-0.9,0.7-0.9h2.6
	c0.4,0,0.7,0.4,0.7,0.9V56.6z"/>
<g>
	<path class="st3" d="M23.2,57.1l2.5,0.5l9.8,1.8c0.8,0.2,1.7,0.3,2.5,0.3c1.4,0,2.7-0.2,4-0.7c0,0,0.1,0,0.1-0.1l10.6-4.7
		c0.6-0.2,1-0.7,1.1-1.3c0.2-0.6,0-1.2-0.4-1.7c-1-1.3-2.3-1.9-3.9-1.9c-0.4,0-0.8,0-1.2,0.1c0,0-0.1,0-0.1,0l-5.8,1.7
		c-0.6-1.4-2.1-2.4-3.8-2.4h-3.2c-0.6,0-1.2-0.2-1.7-0.5c-2-1.1-4.1-1.7-6-1.7c-0.3,0-0.6,0-0.9,0c-0.1,0-0.1,0-0.2,0
		c-0.3,0.1-2.1,0.4-3.4,0.7c-1,0.1-1.7,1-1.7,2v5.9C21.6,56.1,22.3,56.9,23.2,57.1z M23.6,49.3L23.6,49.3c1.3-0.3,3.2-0.7,3.5-0.7
		c2.4-0.2,4.6,0.8,5.7,1.4c0.8,0.4,1.7,0.7,2.7,0.7h3.2c1.1,0,2,0.8,2.1,1.9H32c-0.5,0-1,0.5-1,1c0,0.4,0.3,0.8,0.6,0.9
		c0.1,0,0.2,0.1,0.3,0.1c0,0,0,0,0,0h9.3c0.5,0,1-0.4,1-1c0-0.1,0-0.2-0.1-0.3c0,0,0,0,0,0l6.6-1.9c1.6-0.4,2.6,0.4,3.1,1.1
		l-10.6,4.7c-1.7,0.6-3.6,0.8-5.4,0.4l-9.8-1.8l-2.5-0.5V49.3z"/>
	<g>
		<path class="st3" d="M37.4,27.3c-5.1,0-9.3,4.2-9.3,9.3c0,5.2,4.1,9.4,9.3,9.4c0,0,0.1,0,0.1,0c5.1,0,9.3-4.2,9.3-9.3
			C46.8,31.6,42.6,27.4,37.4,27.3z M37.3,44c-4.1,0-7.3-3.3-7.3-7.4c0-4.1,3.3-7.3,7.4-7.3s7.3,3.3,7.3,7.4
			C44.7,40.8,41.4,44.1,37.3,44z"/>
		<g>
			<g>
				<path class="st3" d="M36.7,36.1L34,33.5c-0.4-0.4-0.4-1,0-1.4l0,0c0.4-0.4,1-0.4,1.4,0l2.6,2.7c0.4,0.4,0.4,1,0,1.4h0
					C37.7,36.5,37.1,36.5,36.7,36.1z"/>
				<path class="st3" d="M39.3,32l-2.7,2.6c-0.4,0.4-0.4,1,0,1.4l0,0c0.4,0.4,1,0.4,1.4,0l2.7-2.6c0.4-0.4,0.4-1,0-1.4l0,0
					C40.3,31.7,39.7,31.7,39.3,32z"/>
			</g>
			<path class="st3" d="M40.3,36.8h-5.8c-0.5,0-1-0.5-1-1l0,0c0-0.5,0.4-1,1-1h5.8c0.5,0,1,0.5,1,1l0,0
				C41.3,36.4,40.8,36.8,40.3,36.8z"/>
			<path class="st3" d="M40.3,39.9h-5.8c-0.5,0-1-0.5-1-1l0,0c0-0.5,0.4-1,1-1h5.8c0.5,0,1,0.5,1,1l0,0
				C41.3,39.5,40.8,39.9,40.3,39.9z"/>
			<path class="st3" d="M36.4,41.6v-5.8c0-0.5,0.4-1,1-1h0c0.5,0,1,0.5,1,1v5.8c0,0.5-0.5,1-1,1h0C36.8,42.6,36.4,42.2,36.4,41.6z"
				/>
		</g>
	</g>
	<path class="st3" d="M51.4,16.8l-2.5-0.5l-9.8-1.8c-0.8-0.2-1.7-0.3-2.5-0.3c-1.4,0-2.7,0.2-4,0.7c0,0-0.1,0-0.1,0.1l-10.6,4.7
		c-0.6,0.2-1,0.7-1.1,1.3c-0.2,0.6,0,1.2,0.4,1.7c1,1.3,2.3,1.9,3.9,1.9c0.4,0,0.8,0,1.2-0.1c0,0,0.1,0,0.1,0l5.8-1.7
		c0.6,1.4,2.1,2.4,3.8,2.4h3.2c0.6,0,1.2,0.2,1.7,0.5c2,1.1,4.1,1.7,6,1.7c0.3,0,0.6,0,0.9,0c0.1,0,0.1,0,0.2,0
		c0.3-0.1,2.1-0.4,3.4-0.7c1-0.1,1.7-1,1.7-2v-5.9C53.1,17.8,52.4,17,51.4,16.8z M51.1,24.6L51.1,24.6c-1.3,0.3-3.2,0.7-3.5,0.7
		c-2.4,0.2-4.6-0.8-5.7-1.4c-0.8-0.4-1.7-0.7-2.7-0.7h-3.2c-1.1,0-2-0.8-2.1-1.9h8.8c0.5,0,1-0.5,1-1c0-0.4-0.3-0.8-0.6-0.9
		c-0.1,0-0.2-0.1-0.3-0.1c0,0,0,0,0,0h-9.3c-0.5,0-1,0.4-1,1c0,0.1,0,0.2,0.1,0.3c0,0,0,0,0,0l-6.6,1.9c-1.6,0.4-2.6-0.4-3.1-1.1
		l10.6-4.7c1.7-0.6,3.6-0.8,5.4-0.4l9.8,1.8l2.5,0.5V24.6z"/>
	<path class="st3" d="M53.7,28.9h2.6c1.5,0,2.7-1.3,2.7-2.9v-8.7c0-1.6-1.2-2.9-2.7-2.9h-2.6c-1.5,0-2.7,1.3-2.7,2.9V26
		C51,27.7,52.2,28.9,53.7,28.9z M53,17.3c0-0.5,0.3-0.9,0.7-0.9h2.6c0.4,0,0.7,0.4,0.7,0.9V26c0,0.5-0.3,0.9-0.7,0.9h-2.6
		c-0.4,0-0.7-0.4-0.7-0.9V17.3z"/>
</g>
</svg>
